<svg xmlns="http://www.w3.org/2000/svg" width="501" height="86" viewBox="0 0 501 86" fill="none">

  <g transform="translate(0.000 0.000) scale(1.00000)">
    <path d="M12 70V38C12 18.2 25.9 7 40 7C54.1 7 68 18.2 68 38V70" fill="none" stroke="#171717" stroke-width="14" stroke-linecap="butt" stroke-linejoin="round"/>
    <path d="M34.1 47.2C30.3 45.2 27.8 41.2 27.8 36.6C27.8 29.9 33.2 24.5 40 24.5C46.8 24.5 52.2 29.9 52.2 36.6C52.2 41.2 49.7 45.2 45.9 47.2L51.2 67.3C51.6 68.8 50.5 70 49 70H31C29.5 70 28.4 68.8 28.8 67.3L34.1 47.2Z" fill="#C1964E"/>
  </g>
  <path d="M117.3125 70.7265625C129.54296875 70.7265625 136.5361328125 65.337890625 136.5361328125 55.892578125C136.5361328125 48.6875 132.146484375 44.69140625 121.79296875 42.7841796875L118.16015625 42.1181640625C113.4677734375 41.2705078125 111.439453125 40.1201171875 111.439453125 37.970703125C111.439453125 35.7001953125 113.921875 34.095703125 117.4638671875 34.095703125C121.2177734375 34.095703125 123.73046875 36.033203125 124.033203125 39.181640625H135.59765625C135.294921875 29.736328125 128.4833984375 24.166015625 117.2216796875 24.166015625C106.2626953125 24.166015625 98.78515625 30.0087890625 98.78515625 38.576171875C98.78515625 45.2666015625 103.5078125 49.8984375 112.2265625 51.5634765625L116.70703125 52.4111328125C121.79296875 53.3798828125 124.09375 54.6513671875 124.09375 56.8310546875C124.09375 59.1923828125 121.4296875 60.796875 117.4638671875 60.796875C112.892578125 60.796875 110.0166015625 58.6474609375 109.8349609375 54.984375H97.9375C97.9375 65.1259765625 104.8095703125 70.7265625 117.3125 70.7265625Z M154.059609375 70.7265625C162.475625 70.7265625 169.256875 66.0947265625 170.4375390625 59.5556640625H159.7207421875C159.0547265625 61.28125 157.1172265625 62.310546875 154.543984375 62.310546875C151.032265625 62.310546875 148.913125 60.3125 148.8223046875 56.921875H170.5586328125V53.6826171875C170.5586328125 44.0859375 163.626015625 37.3046875 153.817421875 37.3046875C144.008828125 37.3046875 137.0762109375 44.2373046875 137.0762109375 54.015625C137.0762109375 63.7939453125 144.0996484375 70.7265625 154.059609375 70.7265625ZM148.913125 50.140625C149.336953125 47.5068359375 151.21390625 45.962890625 154.1504296875 45.962890625C157.086953125 45.962890625 158.96390625 47.5068359375 159.387734375 50.140625Z M186.71980468750002 70.8173828125C196.28621093750002 70.8173828125 202.58308593750002 66.0947265625 202.58308593750002 59.3134765625C202.58308593750002 54.5302734375 199.43464843750002 51.775390625 192.71394531250002 50.6552734375L185.87214843750002 49.5048828125C183.96492187500002 49.171875 182.90535156250002 48.4453125 182.90535156250002 47.4462890625C182.90535156250002 46.265625 184.20710937500002 45.3876953125 186.53816406250002 45.3876953125C188.86921875000002 45.3876953125 190.65535156250002 46.810546875 190.71589843750002 48.6572265625H201.73542968750002C201.55378906250002 41.724609375 195.71101562500002 37.3955078125 186.05378906250002 37.3955078125C176.48738281250002 37.3955078125 170.85652343750002 41.5126953125 170.85652343750002 48.1123046875C170.85652343750002 53.2890625 174.30769531250002 56.5888671875 180.72566406250002 57.6181640625L186.71980468750002 58.5869140625C189.14167968750002 58.98046875 190.29207031250002 59.6767578125 190.29207031250002 60.7060546875C190.29207031250002 61.947265625 188.92976562500002 62.7646484375 186.53816406250002 62.7646484375C183.93464843750002 62.7646484375 182.33015625000002 61.462890625 182.05769531250002 59.5556640625H170.12996093750002C170.76570312500002 66.306640625 177.21394531250002 70.8173828125 186.71980468750002 70.8173828125Z M213.29503906250002 70.5751953125C217.38195312500002 70.5751953125 220.37902343750002 69.333984375 222.49816406250002 65.51953125H222.61925781250002V70.0H234.42589843750002V48.626953125C234.42589843750002 41.361328125 229.15832031250002 37.3046875 219.28917968750002 37.3046875C209.48058593750002 37.3046875 204.24328125000002 41.361328125 203.72863281250002 48.626953125H214.80871093750002C215.02062500000002 46.75 216.41320312500002 45.720703125 218.80480468750002 45.720703125C221.01476562500002 45.720703125 222.43761718750002 46.62890625 222.43761718750002 48.021484375V48.142578125C222.43761718750002 49.8984375 220.31847656250002 50.564453125 214.68761718750002 50.927734375C207.78527343750002 51.3818359375 202.39660156250002 54.015625 202.39660156250002 61.16015625C202.39660156250002 67.517578125 206.87707031250002 70.5751953125 213.29503906250002 70.5751953125ZM217.23058593750002 63.037109375C215.17199218750002 63.037109375 213.71886718750002 62.068359375 213.71886718750002 60.43359375C213.71886718750002 58.798828125 215.23253906250002 57.708984375 217.71496093750002 57.28515625C219.95519531250002 56.8916015625 221.34777343750002 56.55859375 222.55871093750002 56.134765625V58.677734375C222.55871093750002 61.5234375 219.83410156250002 63.037109375 217.23058593750002 63.037109375Z M236.84292968750003 70.0H248.95230468750003V51.654296875C248.95230468750003 48.748046875 250.52652343750003 46.931640625 252.97867187500003 46.931640625C255.49136718750003 46.931640625 257.06558593750003 48.748046875 257.06558593750003 51.654296875V70.0H268.56949218750003V51.654296875C268.56949218750003 48.748046875 270.14371093750003 46.931640625 272.56558593750003 46.931640625C275.07828125000003 46.931640625 276.68277343750003 48.748046875 276.68277343750003 51.654296875V70.0H288.79214843750003V48.626953125C288.79214843750003 41.7548828125 284.37222656250003 37.3046875 277.95425781250003 37.3046875C273.44351562500003 37.3046875 269.20523437500003 39.5146484375 267.60074218750003 43.96484375C266.32925781250003 39.484375 262.54507812500003 37.3046875 258.33707031250003 37.3046875C254.09878906250003 37.3046875 250.25406250000003 39.484375 248.46792968750003 44.2978515625V38.03125H236.84292968750003Z M306.981640625 70.7265625C315.39765625 70.7265625 322.17890625 66.0947265625 323.3595703125 59.5556640625H312.6427734375C311.9767578125 61.28125 310.0392578125 62.310546875 307.466015625 62.310546875C303.954296875 62.310546875 301.83515625 60.3125 301.7443359375 56.921875H323.4806640625V53.6826171875C323.4806640625 44.0859375 316.548046875 37.3046875 306.739453125 37.3046875C296.930859375 37.3046875 289.9982421875 44.2373046875 289.9982421875 54.015625C289.9982421875 63.7939453125 297.0216796875 70.7265625 306.981640625 70.7265625ZM301.83515625 50.140625C302.258984375 47.5068359375 304.1359375 45.962890625 307.0724609375 45.962890625C310.008984375 45.962890625 311.8859375 47.5068359375 312.309765625 50.140625Z" fill="#171717"/>
  <path d="M332.3840234375 70.0H344.9777734375V56.376953125H351.547109375C362.324453125 56.376953125 369.0754296875 50.2919921875 369.0754296875 40.634765625C369.0754296875 30.9775390625 362.324453125 24.892578125 351.547109375 24.892578125H332.3840234375ZM344.9777734375 46.0234375V35.24609375H350.6086328125C354.3928125 35.24609375 356.7844140625 37.3349609375 356.7844140625 40.634765625C356.7844140625 43.9345703125 354.3928125 46.0234375 350.6086328125 46.0234375Z M386.17507812499997 70.7265625C396.58914062499997 70.7265625 403.61257812499997 64.248046875 403.61257812499997 54.015625C403.61257812499997 43.8134765625 396.58914062499997 37.3046875 386.17507812499997 37.3046875C375.79128906249997 37.3046875 368.73757812499997 43.8134765625 368.73757812499997 54.015625C368.73757812499997 64.2783203125 375.79128906249997 70.7265625 386.17507812499997 70.7265625ZM386.17507812499997 61.28125C383.29910156249997 61.28125 380.96804687499997 58.8291015625 380.96804687499997 54.015625C380.96804687499997 49.2021484375 383.29910156249997 46.75 386.17507812499997 46.75C389.05105468749997 46.75 391.38210937499997 49.2021484375 391.38210937499997 54.015625C391.38210937499997 58.8291015625 389.05105468749997 61.28125 386.17507812499997 61.28125Z M404.81867187499995 70.0H416.92804687499995V54.681640625C416.92804687499995 50.4130859375 419.31964843749995 47.71875 423.10382812499995 47.71875H427.52374999999995V38.03125H424.49640624999995C420.10675781249995 38.03125 417.77570312499995 39.544921875 416.62531249999995 43.84375H416.56476562499995V38.03125H404.81867187499995Z M449.92124999999993 38.03125H443.32164062499993V29.3125H431.21226562499993V38.03125H425.82359374999993V47.234375H431.21226562499993V60.43359375C431.21226562499993 67.09375 434.87535156249993 70.0 443.26109374999993 70.0H449.92124999999993V60.796875H446.10679687499993C443.89683593749993 60.796875 443.32164062499993 60.2216796875 443.32164062499993 58.314453125V47.234375H449.92124999999993Z M460.7542968749999 70.5751953125C464.8412109374999 70.5751953125 467.8382812499999 69.333984375 469.9574218749999 65.51953125H470.0785156249999V70.0H481.8851562499999V48.626953125C481.8851562499999 41.361328125 476.6175781249999 37.3046875 466.7484374999999 37.3046875C456.9398437499999 37.3046875 451.7025390624999 41.361328125 451.1878906249999 48.626953125H462.2679687499999C462.4798828124999 46.75 463.8724609374999 45.720703125 466.2640624999999 45.720703125C468.4740234374999 45.720703125 469.8968749999999 46.62890625 469.8968749999999 48.021484375V48.142578125C469.8968749999999 49.8984375 467.7777343749999 50.564453125 462.1468749999999 50.927734375C455.2445312499999 51.3818359375 449.8558593749999 54.015625 449.8558593749999 61.16015625C449.8558593749999 67.517578125 454.3363281249999 70.5751953125 460.7542968749999 70.5751953125ZM464.6898437499999 63.037109375C462.6312499999999 63.037109375 461.1781249999999 62.068359375 461.1781249999999 60.43359375C461.1781249999999 58.798828125 462.6917968749999 57.708984375 465.1742187499999 57.28515625C467.4144531249999 56.8916015625 468.8070312499999 56.55859375 470.0179687499999 56.134765625V58.677734375C470.0179687499999 61.5234375 467.2933593749999 63.037109375 464.6898437499999 63.037109375Z M496.4115624999999 24.892578125H484.3021874999999V70.0H496.4115624999999Z" fill="#C1964E"/>
</svg>